<svg width="56" height="59" viewBox="0 0 56 59" fill="none" xmlns="http://www.w3.org/2000/svg">
<g clip-path="url(#clip0_0_3256)">
<path d="M27.6866 31.2058C32.1592 31.2058 35.7979 27.4094 35.7979 22.7431C35.7979 21.5402 35.5545 20.3959 35.1188 19.3586C35.5643 18.2946 35.7979 17.1407 35.7979 15.973C35.7979 14.7701 35.5545 13.6258 35.1188 12.5885C35.5643 11.5245 35.7979 10.3706 35.7979 9.20288C35.7979 4.53658 32.1592 0.740234 27.6866 0.740234C23.214 0.740234 19.5752 4.53658 19.5752 9.20288C19.5752 10.3706 19.8088 11.5245 20.2543 12.5885C19.8186 13.6258 19.5752 14.7701 19.5752 15.973C19.5752 17.1407 19.8088 18.2946 20.2543 19.3586C19.8186 20.3959 19.5752 21.5402 19.5752 22.7431C19.5752 27.4094 23.214 31.2058 27.6866 31.2058ZM22.8197 15.973C22.8197 13.1732 25.003 10.8954 27.6866 10.8954C30.3701 10.8954 32.5534 13.1732 32.5534 15.973C31.1966 14.9127 29.5111 14.2805 27.6866 14.2805C25.862 14.2805 24.1765 14.9127 22.8197 15.973ZM27.6866 27.8207C25.003 27.8207 22.8197 25.5429 22.8197 22.7431C22.8197 19.9433 25.003 17.6655 27.6866 17.6655C30.3701 17.6655 32.5534 19.9433 32.5534 22.7431C32.5534 25.5429 30.3701 27.8207 27.6866 27.8207ZM27.6866 4.12529C30.3701 4.12529 32.5534 6.4031 32.5534 9.20288C31.1966 8.14257 29.5111 7.51035 27.6866 7.51035C25.862 7.51035 24.1765 8.14257 22.8198 9.20739C22.8197 6.4031 25.003 4.12529 27.6866 4.12529Z" fill="#FFCD00"/>
<path d="M50.5068 4.125C47.8232 4.125 45.6399 6.40281 45.6399 9.20259V24.8393C43.9276 24.2108 41.9432 24.6093 40.5763 26.0353L28.436 38.7016C28.1638 38.9856 27.9146 39.2869 27.6868 39.6023C27.459 39.2869 27.2097 38.9856 26.9376 38.7016L14.7973 26.0353C13.4304 24.6093 11.446 24.2108 9.73364 24.8393V9.20259C9.73364 6.40281 7.55038 4.125 4.86682 4.125C2.18325 4.125 0 6.40281 0 9.20259V37.0212L9.73364 52.254V58.5116H45.6399V52.254L55.3736 37.0212V9.20259C55.3736 6.40281 53.1903 4.125 50.5068 4.125ZM3.24455 35.9962V9.20259C3.24455 8.26933 3.9723 7.51006 4.86682 7.51006C5.76134 7.51006 6.48909 8.26933 6.48909 9.20259V29.6822C6.50618 30.9635 6.97956 32.2406 7.91453 33.2162L20.051 45.8782L22.3452 43.4846L10.2089 30.8226C9.57628 30.1626 9.57628 29.0889 10.2089 28.429C10.8414 27.7691 11.8707 27.7691 12.5032 28.429L24.6434 41.0951C25.5598 42.0514 26.0645 43.3278 26.0645 44.6893V55.1265H12.9782V51.229L3.24455 35.9962ZM52.129 35.9962L42.3954 51.229V55.1265H29.3091V44.6893C29.3091 43.3278 29.8138 42.0514 30.7303 41.095L42.8705 28.4289C43.503 27.7691 44.5323 27.7691 45.1648 28.4289C45.7973 29.0888 45.7973 30.1626 45.1648 30.8225L33.0284 43.4846L35.3226 45.8782L47.4591 33.2162C48.3941 32.2406 48.8674 30.9637 48.8809 29.6822C48.8845 29.6822 48.8845 9.20259 48.8845 9.20259C48.8845 8.26933 49.6122 7.51006 50.5068 7.51006C51.4013 7.51006 52.129 8.26933 52.129 9.20259V35.9962Z" fill="#FFCD00"/>
</g>
<defs>
<clipPath id="clip0_0_3256">
<rect width="55.3736" height="57.7717" fill="white" transform="translate(0 0.740234)"/>
</clipPath>
</defs>
</svg>
