<svg width="161" height="153" viewBox="0 0 161 153" fill="none" xmlns="http://www.w3.org/2000/svg">
<path d="M43.2077 42.9372C63.8033 42.9372 80.4993 34.5892 80.4993 24.2913C80.4993 13.9935 63.8033 5.64551 43.2077 5.64551C22.6121 5.64551 5.91602 13.9935 5.91602 24.2913C5.91602 34.5892 22.6121 42.9372 43.2077 42.9372Z" stroke="#FFCD00" stroke-width="10" stroke-linecap="round" stroke-linejoin="round"/>
<path d="M5.91602 24.291V50.3952C5.91602 60.6914 22.6115 69.041 43.2077 69.041C63.8039 69.041 80.4993 60.6914 80.4993 50.3952V24.291" stroke="#FFCD00" stroke-width="10" stroke-linecap="round" stroke-linejoin="round"/>
<path d="M5.91602 50.3955V76.4997C5.91602 86.7959 22.6115 95.1455 43.2077 95.1455C63.8039 95.1455 80.4993 86.7959 80.4993 76.4997V50.3955" stroke="#FFCD00" stroke-width="10" stroke-linecap="round" stroke-linejoin="round"/>
<path d="M5.91602 76.5V102.604C5.91602 112.9 22.6115 121.25 43.2077 121.25C63.8039 121.25 80.4993 112.9 80.4993 102.604V76.5" stroke="#FFCD00" stroke-width="10" stroke-linecap="round" stroke-linejoin="round"/>
<path d="M5.91602 102.604V128.708C5.91602 139.004 22.6115 147.353 43.2077 147.353C63.8039 147.353 80.4993 139.004 80.4993 128.708V102.604" stroke="#FFCD00" stroke-width="10" stroke-linecap="round" stroke-linejoin="round"/>
<path d="M117.792 95.1452C138.387 95.1452 155.083 86.7972 155.083 76.4994C155.083 66.2015 138.387 57.8535 117.792 57.8535C97.1961 57.8535 80.5 66.2015 80.5 76.4994C80.5 86.7972 97.1961 95.1452 117.792 95.1452Z" stroke="#FFCD00" stroke-width="10" stroke-linecap="round" stroke-linejoin="round"/>
<path d="M80.5 76.5V102.604C80.5 112.9 97.1955 121.25 117.792 121.25C138.388 121.25 155.083 112.9 155.083 102.604V76.5" stroke="#FFCD00" stroke-width="10" stroke-linecap="round" stroke-linejoin="round"/>
<path d="M80.5 102.604V128.708C80.5 139.004 97.1955 147.353 117.792 147.353C138.388 147.353 155.083 139.004 155.083 128.708V102.604" stroke="#FFCD00" stroke-width="10" stroke-linecap="round" stroke-linejoin="round"/>
</svg>
