<svg width="161" height="161" viewBox="0 0 161 161" fill="none" xmlns="http://www.w3.org/2000/svg">
<path d="M65.582 46.9375L80.4987 61.8542L95.4154 46.9375" stroke="#FFCD00" stroke-width="10" stroke-linecap="round" stroke-linejoin="round"/>
<path d="M95.4154 114.063L80.4987 99.1462L65.582 114.063M80.4987 61.8545V20.8337C80.4987 16.8775 82.0703 13.0834 84.8677 10.286C87.6651 7.48856 91.4592 5.91699 95.4154 5.91699H140.165C144.122 5.91699 147.916 7.48856 150.713 10.286C153.51 13.0834 155.082 16.8775 155.082 20.8337V61.8545H80.4987Z" stroke="#FFCD00" stroke-width="10" stroke-linecap="round" stroke-linejoin="round"/>
<path d="M114.062 65.584L99.1452 80.5007L114.062 95.4173M80.4994 99.1465V140.167C80.4994 144.123 78.9278 147.918 76.1304 150.715C73.3329 153.512 69.5388 155.084 65.5827 155.084H20.8327C16.8765 155.084 13.0824 153.512 10.285 150.715C7.48759 147.918 5.91602 144.123 5.91602 140.167V99.1465H80.4994Z" stroke="#FFCD00" stroke-width="10" stroke-linecap="round" stroke-linejoin="round"/>
<path d="M46.9375 95.4173L61.8542 80.5007L46.9375 65.584M99.1458 80.5007H140.167C144.123 80.5007 147.917 82.0722 150.714 84.8696C153.512 87.6671 155.083 91.4612 155.083 95.4173V140.167C155.083 144.123 153.512 147.918 150.714 150.715C147.917 153.512 144.123 155.084 140.167 155.084H99.1458V80.5007Z" stroke="#FFCD00" stroke-width="10" stroke-linecap="round" stroke-linejoin="round"/>
<path d="M61.8535 80.5003H20.8327C16.8765 80.5003 13.0824 78.9287 10.285 76.1313C7.48759 73.3339 5.91602 69.5398 5.91602 65.5837V20.8337C5.91602 16.8775 7.48759 13.0834 10.285 10.286C13.0824 7.48856 16.8765 5.91699 20.8327 5.91699H61.8535" stroke="#FFCD00" stroke-width="10" stroke-linecap="round" stroke-linejoin="round"/>
</svg>
