<svg width="58" height="58" viewBox="0 0 58 58" fill="none" xmlns="http://www.w3.org/2000/svg">
<g clip-path="url(#clip0_0_3285)">
<path d="M55.3636 21.0909H51.376C51.0969 20.3023 50.7757 19.5279 50.4134 18.7716L53.2343 15.9507C54.2639 14.9211 54.2639 13.2519 53.2345 12.2224L45.7778 4.76549C45.2834 4.27108 44.6127 3.99321 43.9136 3.99321C43.2144 3.99321 42.5439 4.27091 42.0495 4.76549L39.2284 7.5864C38.4719 7.22416 37.6979 6.90305 36.9091 6.62395V2.63636C36.9091 1.18039 35.7287 0 34.2727 0H23.7273C22.2713 0 21.0909 1.18039 21.0909 2.63636V6.62395C20.3021 6.90305 19.5279 7.22434 18.7718 7.5864L15.9507 4.76549C14.9213 3.7359 13.2519 3.7359 12.2224 4.76549L4.76549 12.2224C3.7359 13.2519 3.7359 14.9211 4.76549 15.9507L7.5864 18.7718C7.22434 19.5281 6.90323 20.3021 6.62413 21.0909H2.63636C1.18039 21.0909 0 22.2713 0 23.7273V34.2727C0 35.7287 1.18039 36.9091 2.63636 36.9091H6.62413C6.90323 37.6977 7.22452 38.4721 7.5864 39.2282L4.76549 42.0493C4.27108 42.5437 3.99321 43.2142 3.99321 43.9134C3.99321 44.6127 4.27091 45.2832 4.76549 45.7776L12.2225 53.2343C13.2521 54.2637 14.9213 54.2637 15.9507 53.2343L18.772 50.4136C19.5284 50.7757 20.3023 51.0969 21.0909 51.376V55.3636C21.0909 56.8196 22.2713 58 23.7273 58H34.2727C35.7287 58 36.9091 56.8196 36.9091 55.3636V51.3759C37.6979 51.0968 38.4721 50.7757 39.2284 50.4134L42.0496 53.2343C43.0791 54.2637 44.7482 54.2639 45.7778 53.2342L53.2345 45.7775C54.2641 44.7479 54.2641 43.0787 53.2345 42.0491L50.4136 39.2282C50.7758 38.4719 51.0971 37.6977 51.3762 36.9089H55.3636C56.8196 36.9089 58 35.7285 58 34.2725V23.7271C58 22.2713 56.8196 21.0909 55.3636 21.0909ZM52.7273 31.6364H49.4264C48.2231 31.6364 47.1728 32.4508 46.8731 33.6161C46.4452 35.2803 45.7812 36.8804 44.8999 38.3717C44.2879 39.4075 44.4547 40.7264 45.3056 41.577L47.6421 43.9136L43.9137 47.6419L41.577 45.3056C40.7265 44.4551 39.4078 44.2881 38.3723 44.8999C36.881 45.7808 35.2805 46.4448 33.6157 46.8735C32.4506 47.1732 31.6364 48.2235 31.6364 49.4265V52.7273H26.3636V49.4265C26.3636 48.2237 25.5494 47.1733 24.3844 46.8735C22.7198 46.445 21.1197 45.781 19.6281 44.8999C18.5922 44.2879 17.2738 44.4549 16.4233 45.3056L14.0866 47.6419L10.3579 43.9134L12.6944 41.5769C13.5453 40.7262 13.7121 39.4075 13.1001 38.3717C12.2192 36.8808 11.5554 35.2805 11.1267 33.6156C10.827 32.4506 9.77652 31.6364 8.57363 31.6364H5.27273V26.3636H8.57363C9.77652 26.3636 10.8268 25.5494 11.1267 24.3844C11.5552 22.7193 12.2192 21.119 13.1001 19.6281C13.7121 18.5923 13.5453 17.2736 12.6944 16.423L10.3581 14.0864L14.0866 10.3581L16.4231 12.6944C17.2738 13.5451 18.5927 13.7121 19.6283 13.1001C21.1194 12.219 22.7198 11.5552 24.3846 11.1265C25.5494 10.8268 26.3636 9.77652 26.3636 8.57345V5.27273H31.6364V8.57345C31.6364 9.77634 32.4506 10.8267 33.6156 11.1265C35.2807 11.5552 36.881 12.219 38.3721 13.1001C39.408 13.7119 40.7265 13.5451 41.5772 12.6944L43.9137 10.3581L47.6421 14.0864L45.3056 16.423C44.4547 17.2736 44.2879 18.5925 44.8999 19.6283C45.7812 21.1194 46.445 22.7195 46.8731 24.3839C47.1728 25.549 48.2233 26.3635 49.4264 26.3635H52.7273V31.6364Z" fill="#FFCD00"/>
<path d="M32.7601 23.2694L26.7151 29.3142L25.064 27.6634C24.0346 26.6338 22.3653 26.6338 21.3357 27.6634C20.3061 28.6929 20.3061 30.3621 21.3357 31.3917L24.8508 34.9069C25.3656 35.4217 26.0404 35.679 26.7151 35.679C27.3898 35.679 28.0646 35.4217 28.5792 34.9067L36.4883 26.9976C37.5179 25.968 37.5179 24.2988 36.4883 23.2692C35.4589 22.2397 33.7895 22.2397 32.7601 23.2694Z" fill="#FFCD00"/>
</g>
<defs>
<clipPath id="clip0_0_3285">
<rect width="58" height="58" fill="white"/>
</clipPath>
</defs>
</svg>
