<svg width="71" height="68" viewBox="0 0 71 68" fill="none" xmlns="http://www.w3.org/2000/svg">
<path d="M2.08008 60.917H68.9199C70.0688 60.917 71 59.9858 71 58.8369C71 57.688 70.0688 56.7568 68.9199 56.7568H54.238C54.4878 41.8057 57.408 33.5417 59.8754 29.2007C62.4663 24.6429 65.0561 23.4653 65.2998 23.3629C66.3453 23.0487 66.9319 21.9897 66.6898 20.9226C66.4455 19.8479 65.3665 19.1627 64.2793 19.3436C64.0014 19.3896 57.4069 20.5396 50.8092 26.0377C50.5426 26.2593 50.281 26.4863 50.0226 26.7159C53.5273 13.5519 58.0315 5.91353 58.0846 5.82523C58.6067 4.95474 58.4247 3.83508 57.6539 3.17476C56.8831 2.51499 55.7488 2.5074 54.9693 3.15688C54.8231 3.27876 51.34 6.20117 46.9513 11.5796C43.5673 15.7267 39.0827 22.0661 35.5016 30.089C33.6816 26.0031 31.4753 22.0092 28.9104 18.1616C22.5759 8.65934 16.295 3.37735 16.0307 3.15688C15.2512 2.5074 14.1169 2.51499 13.3461 3.1753C12.5753 3.83508 12.3933 4.95474 12.9154 5.82523C12.9691 5.91461 17.4694 13.5161 20.9795 26.7181C20.7206 26.4879 20.4579 26.2604 20.1908 26.0377C13.5931 20.5396 6.9986 19.3902 6.72071 19.3436C5.63463 19.1632 4.5545 19.8479 4.3102 20.9226C4.06807 21.9903 4.65472 23.0487 5.70017 23.3629C5.94339 23.4653 8.53374 24.6429 11.1246 29.2012C13.592 33.5417 16.5122 41.8057 16.762 56.7568H2.08008C0.93116 56.7568 0 57.6885 0 58.8369C0 59.9858 0.93116 60.917 2.08008 60.917ZM53.3134 29.3669C54.2895 28.5414 55.27 27.8253 56.2239 27.2062C52.3421 34.0612 50.2788 43.9914 50.0784 56.7568H41.7765C42.1243 46.1912 45.2097 36.2193 53.3134 29.3669ZM49.2193 15.4044C47.474 20.1458 45.616 26.2393 44.1822 33.5222C43.2499 34.9566 42.4103 36.4739 41.672 38.0746C40.9732 39.588 40.3633 41.1752 39.8422 42.8311C39.2658 40.419 38.5584 38.0242 37.7215 35.6538C37.7193 35.6473 37.7171 35.6413 37.715 35.6348C40.9878 26.9635 45.6046 20.0158 49.2193 15.4044ZM37.5449 56.7568H33.3869C33.1263 48.5042 31.2808 40.3881 26.8178 33.5222C25.3851 26.2425 23.5271 20.1501 21.7823 15.4093C31.1048 27.2782 37.0476 41.6616 37.5449 56.7568ZM14.7761 27.2062C22.753 32.3852 28.7267 41.6687 29.2235 56.7568C26.7117 56.7568 23.416 56.7568 20.9221 56.7568C20.7212 43.9914 18.6579 34.0612 14.7761 27.2062Z" fill="#FFCD00"/>
</svg>
