<svg width="58" height="58" viewBox="0 0 58 58" fill="none" xmlns="http://www.w3.org/2000/svg">
<g clip-path="url(#clip0_0_3265)">
<path d="M56.3003 58H1.69921C0.760791 58 0 57.2392 0 56.3008C0 55.3624 0.760791 54.6016 1.69921 54.6016H56.3003C57.2388 54.6016 57.9995 55.3624 57.9995 56.3008C57.9995 57.2392 57.2388 58 56.3003 58Z" fill="#FFCD00"/>
<path d="M12.0077 57.9999H5.21092C4.27251 57.9999 3.51172 57.2391 3.51172 56.3007V43.8398C3.51172 42.2783 4.78216 41.0078 6.34373 41.0078H10.8749C12.4365 41.0078 13.707 42.2783 13.707 43.8398V56.3007C13.707 57.2391 12.9462 57.9999 12.0077 57.9999ZM6.91013 54.6015H10.3085V44.4062H6.91013V54.6015ZM10.8749 44.4062H10.8761H10.8749Z" fill="#FFCD00"/>
<path d="M25.6015 57.9998H18.8047C17.8663 57.9998 17.1055 57.239 17.1055 56.3006V39.7617C17.1055 38.2001 18.3759 36.9297 19.9375 36.9297H24.4687C26.0303 36.9297 27.3007 38.2001 27.3007 39.7617V56.3006C27.3007 57.239 26.5399 57.9998 25.6015 57.9998ZM20.5039 54.6014H23.9023V40.3281H20.5039V54.6014ZM24.4687 40.3281H24.4698H24.4687Z" fill="#FFCD00"/>
<path d="M39.1952 57.9998H32.3984C31.46 57.9998 30.6992 57.239 30.6992 56.3006V33.5312C30.6992 31.9697 31.9697 30.6992 33.5312 30.6992H38.0624C39.624 30.6992 40.8945 31.9697 40.8945 33.5312V56.3006C40.8945 57.239 40.1337 57.9998 39.1952 57.9998ZM34.0976 54.6014H37.496V34.0976H34.0976V54.6014ZM38.0624 34.0976H38.0636H38.0624Z" fill="#FFCD00"/>
<path d="M52.788 57.9997H45.9912C45.0528 57.9997 44.292 57.2389 44.292 56.3005V22.2031C44.292 20.6415 45.5624 19.3711 47.124 19.3711H51.6552C53.2168 19.3711 54.4872 20.6415 54.4872 22.2031V56.3005C54.4872 57.2389 53.7264 57.9997 52.788 57.9997ZM47.6904 54.6013H51.0888V22.7695H47.6904V54.6013ZM51.6552 22.7695H51.6564H51.6552Z" fill="#FFCD00"/>
<path d="M1.69921 36.5118C0.760791 36.5118 0 35.751 0 34.8126C0 33.8741 0.760791 33.1134 1.69921 33.1134C11.6912 33.1134 22.5704 29.4748 32.3326 22.8679C41.3136 16.7899 48.4699 8.82173 51.9667 1.00663C52.35 0.150008 53.3552 -0.233786 54.2117 0.149668C55.0683 0.532896 55.452 1.53803 55.0686 2.39466C51.3206 10.7714 43.7279 19.2595 34.2374 25.6824C23.9188 32.6658 12.3631 36.5118 1.69921 36.5118Z" fill="#FFCD00"/>
<path d="M56.3 13.7836C55.5496 13.7836 54.8631 13.2829 54.6598 12.5237L52.3171 3.78063L43.574 6.12338C42.6672 6.36648 41.7358 5.8284 41.4929 4.92193C41.25 4.01546 41.7879 3.08373 42.6943 2.84086L53.0787 0.0583519C53.9856 -0.184634 54.9169 0.353447 55.1598 1.2598L57.9423 11.6442C58.1852 12.5507 57.6473 13.4824 56.7409 13.7253C56.5935 13.7647 56.4456 13.7836 56.3 13.7836Z" fill="#FFCD00"/>
</g>
<defs>
<clipPath id="clip0_0_3265">
<rect width="58" height="58" fill="white"/>
</clipPath>
</defs>
</svg>
