<svg width="70" height="70" viewBox="0 0 70 70" fill="none" xmlns="http://www.w3.org/2000/svg">
<path d="M59.7461 36.6612H52.894C51.9615 36.6612 51.0586 36.7886 50.1993 37.023C48.5043 33.6909 45.0436 31.4014 41.056 31.4014H28.944C24.9564 31.4014 21.4957 33.6909 19.8007 37.023C18.9414 36.7886 18.0385 36.6612 17.106 36.6612H10.2539C4.5999 36.6612 0 41.2611 0 46.9151V57.8687C0 61.2611 2.75994 64.0211 6.15234 64.0211H63.8477C67.2401 64.0211 70 61.2611 70 57.8687V46.9151C70 41.2611 65.4001 36.6612 59.7461 36.6612ZM18.6901 41.6555V59.9197H6.15234C5.02154 59.9197 4.10156 58.9997 4.10156 57.8689V46.9153C4.10156 43.5229 6.8615 40.7629 10.2539 40.7629H17.106C17.6627 40.7629 18.2018 40.8385 18.715 40.9778C18.7003 41.2022 18.6901 41.4278 18.6901 41.6555ZM47.2083 59.9197H22.7917V41.6554C22.7917 38.263 25.5516 35.5031 28.944 35.5031H41.056C44.4484 35.5031 47.2083 38.263 47.2083 41.6554V59.9197ZM65.8984 57.8689C65.8984 58.9997 64.9785 59.9197 63.8477 59.9197H51.3099V41.6554C51.3099 41.4275 51.2997 41.2019 51.285 40.9777C51.7982 40.8385 52.3373 40.7628 52.894 40.7628H59.7461C63.1385 40.7628 65.8984 43.5227 65.8984 46.9151V57.8689Z" fill="#FFCD00"/>
<path d="M13.6801 17.2959C8.65584 17.2959 4.56836 21.3834 4.56836 26.4077C4.56822 31.4319 8.65584 35.5194 13.6801 35.5194C18.7043 35.5194 22.7919 31.4319 22.7919 26.4077C22.7919 21.3834 18.7044 17.2959 13.6801 17.2959ZM13.68 31.4179C10.9173 31.4179 8.66978 29.1703 8.66978 26.4077C8.66978 23.645 10.9173 21.3975 13.68 21.3975C16.4427 21.3975 18.6902 23.645 18.6902 26.4077C18.6902 29.1703 16.4427 31.4179 13.68 31.4179Z" fill="#FFCD00"/>
<path d="M35.0003 5.97852C28.288 5.97852 22.8271 11.4393 22.8271 18.1517C22.8271 24.864 28.288 30.3248 35.0003 30.3248C41.7127 30.3248 47.1735 24.864 47.1735 18.1517C47.1735 11.4395 41.7127 5.97852 35.0003 5.97852ZM35.0003 26.2233C30.5496 26.2233 26.9287 22.6024 26.9287 18.1517C26.9287 13.7011 30.5496 10.0801 35.0003 10.0801C39.4511 10.0801 43.0719 13.7009 43.0719 18.1517C43.0719 22.6024 39.4511 26.2233 35.0003 26.2233Z" fill="#FFCD00"/>
<path d="M56.3198 17.2959C51.2956 17.2959 47.208 21.3834 47.208 26.4077C47.2081 31.4319 51.2956 35.5194 56.3198 35.5194C61.3441 35.5194 65.4315 31.4319 65.4315 26.4077C65.4315 21.3834 61.3441 17.2959 56.3198 17.2959ZM56.3198 31.4179C53.5572 31.4179 51.3096 29.1703 51.3096 26.4077C51.3097 23.645 53.5572 21.3975 56.3198 21.3975C59.0824 21.3975 61.33 23.645 61.33 26.4077C61.33 29.1703 59.0824 31.4179 56.3198 31.4179Z" fill="#FFCD00"/>
</svg>
